<svg id="Layer_1" data-name="Layer 1" xmlns="http://www.w3.org/2000/svg" xmlns:xlink="http://www.w3.org/1999/xlink" viewBox="0 0 296.91 91.18">
    <defs>
        <style>.cls-1{fill:url(#New_Gradient_Swatch_1);}.cls-2{fill:#001f5b;}.cls-3{fill:url(#New_Gradient_Swatch_1-2);}</style>
        <linearGradient id="New_Gradient_Swatch_1" x1="60.78" x2="60.78" y2="91.18" gradientUnits="userSpaceOnUse">
            <stop offset="0" stop-color="#dadfe1"/>
            <stop offset="1" stop-color="#6ba2b9"/>
        </linearGradient>
        <linearGradient id="New_Gradient_Swatch_1-2" x1="73.08" y1="18.25" x2="89.35" y2="62.95" xlink:href="#New_Gradient_Swatch_1"/>
    </defs>
    <title>Paoli Peaks Logo</title>
    <path class="cls-1" d="M90.85,0H16.67A16.67,16.67,0,0,0,0,16.67v71.7a2.82,2.82,0,0,0,2.82,2.82h8.3a2.82,2.82,0,0,0,2.82-2.82V16.67a2.73,2.73,0,0,1,2.73-2.73H90.85a16.77,16.77,0,0,1,16.77,16.77V44.58a16.65,16.65,0,0,1-1.83,7.57l-25.59-32a6.23,6.23,0,0,0-4.78-2.34,6.1,6.1,0,0,0-4.84,2.21L58.49,34.33,47.28,20.68a6.45,6.45,0,0,0-4.52-2.42,6.17,6.17,0,0,0-5.18,2.19L21.08,40A6.18,6.18,0,0,0,19.7,43h0v.2a6.24,6.24,0,0,0,0,1.44V68.32a7,7,0,0,0,7,7H90.85a30.71,30.71,0,0,0,30.71-30.71V30.71A30.71,30.71,0,0,0,90.85,0ZM33.59,44.47l6.49-7.67a2.82,2.82,0,0,1,4.33,0L64.56,61.35H36.41a2.82,2.82,0,0,1-2.82-2.82Zm47,16.88a6.14,6.14,0,0,0-.4-.6L66.54,44.13,73,36.51a2.82,2.82,0,0,1,4.35.06L96.41,60.38a16.66,16.66,0,0,1-5.57,1Z"/>
    <path class="cls-2" d="M150.4,32.27H132.24V24.83h3V8.64h-3V1.2H151.3q6.57,0,9.61,1.27A9.55,9.55,0,0,1,165.37,6a8.9,8.9,0,0,1,1.43,4.89,8.57,8.57,0,0,1-1.7,5.45,9.55,9.55,0,0,1-4.49,3.17,27.63,27.63,0,0,1-8.49,1h-4.85v4.36h3.13ZM147.27,8v5.83h2.35a8.19,8.19,0,0,0,3.57-.58A2.33,2.33,0,0,0,154.27,11a3,3,0,0,0-.58-1.85,2.46,2.46,0,0,0-1.5-.94,15.71,15.71,0,0,0-3-.2Zm32.3,24.26H167.26V24.83h2.37l5.83-16.19H173V1.2h22.34V8.64h-2.5l5.94,16.19H201v7.44H184.8V25.46h2.72l-1.18-3.91h-8L177,25.46h2.55ZM182.5,9.09l-2.93,8.6h5.56Zm22.2,7.57a16.09,16.09,0,0,1,1.9-7.53A15.81,15.81,0,0,1,212.42,3a14.46,14.46,0,0,1,2.89-1.38,19.27,19.27,0,0,1,3.23-.79,23.23,23.23,0,0,1,3.66-.28q8.35,0,12.93,4.89a17.08,17.08,0,0,1,3.44,5.23,15.47,15.47,0,0,1,1.16,6A15.57,15.57,0,0,1,235,28q-4.73,4.8-12.8,4.8-7.8,0-12.64-4.51A15,15,0,0,1,204.7,16.66Zm13.49,0q0,5.18,1,7a3.18,3.18,0,0,0,3,1.83,3.28,3.28,0,0,0,3-1.76q1-1.79,1-7.06,0-5.12-1-7a3.22,3.22,0,0,0-3.06-1.83,3.26,3.26,0,0,0-3,1.76Q218.19,11.39,218.19,16.66ZM275,32.27H245.46V24.83h2.79V8.64h-2.79V1.2h17.76V8.64h-2.95V24.83h7.35v-5H275Zm21.89,0H279.2V24.83h2.86V8.64H279.2V1.2h17.71V8.64h-2.84V24.83h2.84Zm-148,37.94H132.09V63.33h2.79v-15h-2.79V41.48h17.62q6.07,0,8.88,1.18a8.82,8.82,0,0,1,4.13,3.26A8.23,8.23,0,0,1,164,50.44a7.92,7.92,0,0,1-1.57,5,8.82,8.82,0,0,1-4.15,2.93,25.55,25.55,0,0,1-7.85.89H146v4h2.89ZM146,47.78v5.39h2.17a7.56,7.56,0,0,0,3.3-.54,2.15,2.15,0,0,0,1-2.09,2.74,2.74,0,0,0-.54-1.71,2.27,2.27,0,0,0-1.38-.87,14.6,14.6,0,0,0-2.81-.19Zm50.08,22.43H168.67V63.33h2.23v-15h-2.27V41.48h27.45v9.19h-7.54V48.36H182v4.42h5.68v5.85H182v4.71h6.53V61h7.54Zm15.94,0H200.64V63.33h2.19l5.39-15H205.9V41.48h20.65v6.88h-2.31l5.49,15h2.11v6.88h-15v-6.3h2.52l-1.09-3.61h-7.35l-1.26,3.61H212Zm2.71-21.44-2.71,8h5.14ZM251.5,70.21H235.93V63.33h2.19v-15h-2.25V41.48H251.5v6.88h-2.27v15h2.27Zm17.86,0H254.5V63.33h1.38l-6.3-8.18,7.31-6.79h-2.33V41.48h14.15v6.88h-2.23l-5.87,5.45,7.33,9.52h1.42Zm10.82,0h-6.46V61h6.46q1.16,3.76,4.36,3.76,2.31,0,2.31-1.86a2,2,0,0,0-.81-1.61,19.06,19.06,0,0,0-3.66-1.94,34,34,0,0,1-5.16-2.75,8.89,8.89,0,0,1-2.64-2.91,7.8,7.8,0,0,1-1.09-4.07,7.84,7.84,0,0,1,2.6-6.26,9.34,9.34,0,0,1,6.36-2.25,9.77,9.77,0,0,1,6.4,2.15V41.48h6.51v8.18h-6.42q-1.18-3.39-4.17-3.39-2.11,0-2.11,1.8a1.5,1.5,0,0,0,.6,1.3,31.62,31.62,0,0,0,3.74,2,57.07,57.07,0,0,1,5.66,3.08,7.56,7.56,0,0,1,1.48,1.33,9.73,9.73,0,0,1,1.25,1.77,8.81,8.81,0,0,1,1.14,4.38A8,8,0,0,1,293.84,68a9.47,9.47,0,0,1-6.77,2.54,11.37,11.37,0,0,1-6.88-2.25Z"/>
    <path class="cls-2" d="M134,78.41c1.79,0,2.71,1.07,2.71,2.94v.37H135v-.48c0-.84-.33-1.15-.92-1.15s-.92.32-.92,1.15.37,1.49,1.57,2.54c1.54,1.35,2,2.32,2,3.66,0,1.87-.94,2.94-2.74,2.94s-2.74-1.07-2.74-2.94v-.72H133v.84c0,.84.37,1.14,1,1.14s1-.3,1-1.14-.37-1.49-1.57-2.54c-1.54-1.35-2-2.32-2-3.66C131.28,79.48,132.2,78.41,134,78.41Z"/>
    <path class="cls-2" d="M134,90.59c-1.9,0-3-1.12-3-3.15v-.93h2.16v1c0,.82.38.93.74.93s.74-.11.74-.93-.38-1.4-1.5-2.38c-1.53-1.34-2.09-2.38-2.09-3.82,0-2,1-3.15,2.92-3.15s2.92,1.12,2.92,3.15v.58h-2.16v-.69c0-.83-.34-.94-.71-.94s-.71.11-.71.94.38,1.4,1.5,2.38c1.53,1.34,2.1,2.38,2.1,3.82C136.92,89.47,135.87,90.59,134,90.59Zm-2.53-3.66v.51c0,1.79.88,2.73,2.53,2.73s2.53-.95,2.53-2.73c0-1.32-.51-2.24-2-3.5-1.23-1.07-1.64-1.76-1.64-2.7s.38-1.36,1.13-1.36,1.13.46,1.13,1.36v.28h1.32v-.16c0-1.25-.43-2.73-2.5-2.73s-2.5,1.49-2.5,2.73.51,2.24,2,3.51c1.23,1.07,1.64,1.75,1.64,2.7,0,1.11-.63,1.35-1.16,1.35s-1.16-.23-1.16-1.35v-.63Z"/>
    <path class="cls-2" d="M148.2,85.58l-.57,1.07v3.59h-1.84V78.54h1.84v5.07h0L150,78.54h1.84l-2.56,5.22,2.56,6.49H150Z"/>
    <path class="cls-2" d="M152.18,90.46h-2.34l-1.68-4.37-.33.62v3.75h-2.26V78.33h2.26v4.41l2.07-4.41h2.31l-2.67,5.43ZM150.13,90h1.44l-2.48-6.29,2.45-5h-1.37l-2.37,5.07h-.34l0-.21V78.75H146V90h1.42l0-3.48.78-1.48Z"/>
    <path class="cls-2" d="M160.73,78.54h1.84v11.7h-1.84Z"/>
    <path class="cls-2" d="M162.78,90.46h-2.26V78.33h2.26ZM160.94,90h1.42V78.75h-1.42Z"/>
    <path class="cls-2" d="M186.39,90.25a3.59,3.59,0,0,1-.17-1.44V87c0-1.09-.37-1.49-1.2-1.49h-.64v4.77h-1.84V78.54h2.78c1.91,0,2.73.89,2.73,2.69v.92a2.31,2.31,0,0,1-1.2,2.36v0c.92.38,1.22,1.25,1.22,2.47v1.81a3.45,3.45,0,0,0,.2,1.42Zm-2-10v3.59h.72c.68,0,1.1-.3,1.1-1.24V81.42c0-.84-.28-1.2-.94-1.2Z"/>
    <path class="cls-2" d="M188.58,90.46h-2.34l0-.14a3.79,3.79,0,0,1-.18-1.5V87c0-1.07-.36-1.28-1-1.28h-.43v4.77h-2.26V78.33h3c2,0,2.93.95,2.93,2.9v.92a2.63,2.63,0,0,1-1,2.37,2.78,2.78,0,0,1,1,2.5v1.81a3.3,3.3,0,0,0,.18,1.34Zm-2-.42H188a4.38,4.38,0,0,1-.12-1.21V87c0-1.26-.34-2-1.09-2.28l-.13-.05v-.27l.12-.09a2.1,2.1,0,0,0,1.08-2.17v-.92c0-1.72-.78-2.48-2.52-2.48h-2.57V90h1.42V85.27H185c1,0,1.41.52,1.41,1.7v1.84A4,4,0,0,0,186.55,90Zm-1.44-6h-.93V80h1.09c1.14,0,1.14,1.06,1.14,1.41v1.15C186.42,83.55,186,84,185.11,84Zm-.51-.42h.51c.54,0,.89-.18.89-1V81.42c0-.83-.28-1-.73-1h-.68Z"/>
    <path class="cls-2" d="M197.29,78.54h1.84v11.7h-1.84Z"/>
    <path class="cls-2" d="M199.34,90.46h-2.26V78.33h2.26ZM197.5,90h1.42V78.75H197.5Z"/>
    <path class="cls-2" d="M208.49,78.54h2.91c1.84,0,2.74,1,2.74,2.89v5.92c0,1.87-.9,2.89-2.74,2.89h-2.91Zm1.84,1.67v8.36h1c.59,0,.94-.3.94-1.14V81.35c0-.84-.35-1.14-.94-1.14Z"/>
    <path class="cls-2" d="M211.4,90.46h-3.12V78.33h3.12c1.93,0,3,1.07,3,3.1v5.92C214.35,89.38,213.33,90.46,211.4,90.46ZM208.7,90h2.7c1.68,0,2.53-.9,2.53-2.68V81.44c0-1.78-.85-2.68-2.53-2.68h-2.7Zm2.67-1.25h-1.25V80h1.25c.76,0,1.15.45,1.15,1.35v6.09C212.51,88.33,212.13,88.79,211.37,88.79Zm-.83-.42h.83c.38,0,.73-.11.73-.93V81.35c0-.82-.35-.93-.73-.93h-.83Z"/>
    <path class="cls-2" d="M225.18,83.48h2.52v1.67h-2.52v3.43h3.18v1.67h-5V78.54h5v1.67h-3.18Z"/>
    <path class="cls-2" d="M228.56,90.46h-5.43V78.33h5.43v2.09h-3.18v2.84h2.52v2.09h-2.52v3h3.18Zm-5-.42h4.6V88.79H225V84.94h2.52V83.69H225V80h3.18V78.75h-4.6Z"/>
    <path class="cls-2" d="M247.59,78.54h5.68v1.67h-1.92v10h-1.84v-10h-1.92Z"/>
    <path class="cls-2" d="M251.56,90.46h-2.26v-10h-1.92V78.33h6.1v2.09h-1.92ZM249.72,90h1.42V80h1.92V78.75H247.8V80h1.92Z"/>
    <path class="cls-2" d="M263.86,78.54v9c0,.84.37,1.14,1,1.14s1-.3,1-1.14v-9h1.74v8.91c0,1.87-.94,2.94-2.74,2.94S262,89.33,262,87.46V78.54Z"/>
    <path class="cls-2" d="M264.76,90.61c-1.9,0-3-1.12-3-3.15V78.33h2.26v9.24c0,.82.38.93.74.93s.74-.11.74-.93V78.33h2.16v9.12C267.71,89.49,266.66,90.61,264.76,90.61Zm-2.53-11.85v8.7c0,1.79.88,2.73,2.53,2.73s2.53-.95,2.53-2.73v-8.7H266v8.82c0,1.11-.63,1.35-1.16,1.35s-1.16-.23-1.16-1.35V78.75Z"/>
    <path class="cls-2" d="M282.28,81.24v.42A2.27,2.27,0,0,1,281.09,84v0a2.34,2.34,0,0,1,1.37,2.49v1a2.49,2.49,0,0,1-2.79,2.78h-2.89V78.54h2.78C281.46,78.54,282.28,79.43,282.28,81.24Zm-3.66-1v3.09h.72c.68,0,1.1-.3,1.1-1.24v-.65c0-.84-.28-1.2-.94-1.2Zm0,4.77v3.6h1.05c.62,0,1-.28,1-1.15v-1c0-1.09-.35-1.42-1.19-1.42Z"/>
    <path class="cls-2" d="M279.67,90.46h-3.1V78.33h3c2,0,2.93.95,2.93,2.9v.42a2.59,2.59,0,0,1-1,2.34,2.64,2.64,0,0,1,1.16,2.52v1A2.7,2.7,0,0,1,279.67,90.46ZM277,90h2.68a2.28,2.28,0,0,0,2.58-2.57v-1c0-1.24-.39-2-1.24-2.3l-.13-.05V83.9l.12-.09c.74-.35,1.07-1,1.07-2.15v-.42c0-1.72-.78-2.48-2.52-2.48H277Zm2.68-1.25h-1.26v-4h1c1,0,1.4.47,1.4,1.63v1C280.83,88.35,280.46,88.79,279.67,88.79Zm-.84-.42h.84c.47,0,.74-.15.74-.94v-1c0-1-.32-1.21-1-1.21h-.61Zm.51-4.85h-.93V80h1.09c1.14,0,1.14,1.06,1.14,1.41v.65C280.65,83,280.22,83.52,279.34,83.52Zm-.51-.42h.51c.54,0,.89-.18.89-1v-.65c0-.83-.28-1-.73-1h-.68Z"/>
    <path class="cls-2" d="M293.43,83.48H296v1.67h-2.52v3.43h3.18v1.67h-5V78.54h5v1.67h-3.18Z"/>
    <path class="cls-2" d="M296.82,90.46h-5.43V78.33h5.43v2.09h-3.18v2.84h2.52v2.09h-2.52v3h3.18Zm-5-.42h4.6V88.79h-3.18V84.94h2.52V83.69h-2.52V80h3.18V78.75h-4.6Z"/>
    <path class="cls-3" d="M74.58,35.59a1.7,1.7,0,0,1,2.61,0L96.41,60.38s8.71-4.19,9.38-8.23L80.89,19.92A6.31,6.31,0,0,0,76,17.61h0a6.41,6.41,0,0,0-4.9,2.27L58.65,34.56c2.91,3.22,5.37,6.85,8.28,10.07Z"/>
</svg>